# xmcd CD database file generated by OrangeCD 6.2
#
# Track frame offsets:
#	150
#	23705
#	40382
#	61019
#	78142
#	92400
#	111472
#	131042
#	143771
#	164217
#
# Disc length: 2371 seconds
#
# Revision: 0
# Processed by: cddbd v1.5.2PL0 Copyright (c) Steve Scherf et al.
# Submitted via: OrangeCD 6.2
#
DISCID=8109410a
DTITLE=HP and The American Dream - Uncle Johnny Had A Cool Guitar
DYEAR=2008
DGENRE=
TTITLE0=Uncle Johnny
TTITLE1=That's For Sure
TTITLE2=Still Crying
TTITLE3=Those Memories
TTITLE4=Cannot Say Yes, Can't Say No
TTITLE5=The Jig
TTITLE6=Lucky You
TTITLE7=Sweet Disaster
TTITLE8=I Love You Because
TTITLE9=Paving The Highway
EXTD=
EXTT0=
EXTT1=
EXTT2=
EXTT3=
EXTT4=
EXTT5=
EXTT6=
EXTT7=
EXTT8=
EXTT9=
PLAYORDER=
